<svg class="svg-icon" style="width: 1.0009765625em; height: 1em;vertical-align: middle;fill: currentColor;overflow: hidden;" viewBox="0 0 1025 1024" version="1.1" xmlns="http://www.w3.org/2000/svg"><path d="M512.003 830.596c-43.005 0-84.73-8.425-124.016-25.042-37.94-16.047-72.011-39.017-101.267-68.273s-52.226-63.327-68.273-101.267c-16.616-39.286-25.042-81.011-25.042-124.016s8.425-84.73 25.042-124.016c16.047-37.94 39.017-72.011 68.273-101.267 29.256-29.255 63.327-52.226 101.267-68.272 39.286-16.616 81.011-25.043 124.016-25.043s84.729 8.425 124.016 25.043c37.94 16.047 72.010 39.017 101.267 68.272 29.255 29.256 52.226 63.327 68.273 101.267 16.616 39.286 25.042 81.011 25.042 124.016s-8.425 84.73-25.042 124.016c-16.047 37.94-39.017 72.011-68.273 101.267-29.256 29.255-63.327 52.226-101.267 68.273-39.287 16.616-81.011 25.042-124.016 25.042zM512.003 218.698c-78.344 0-151.998 30.509-207.395 85.905s-85.906 129.052-85.906 207.396 30.509 151.998 85.905 207.396 129.052 85.904 207.396 85.904 151.998-30.509 207.395-85.905 85.906-129.052 85.906-207.395-30.509-151.998-85.906-207.395-129.051-85.906-207.395-85.906z"  /><path d="M617.162 423.054c-3.428-6.37-10.011-10.339-17.161-10.339h-176.009c-7.15 0-13.732 3.968-17.158 10.339-1.602 2.973-2.394 6.247-2.394 9.515 0 3.745 1.041 7.477 3.103 10.738l88.002 138.999c3.601 5.686 9.801 9.12 16.454 9.12 6.651 0 12.852-3.434 16.45-9.12l88.002-138.999c2.066-3.262 3.107-6.995 3.107-10.738 0-3.269-0.795-6.541-2.396-9.515zM511.998 571.571l-88.008-138.999h176.008l-88.001 138.999z"  /><path d="M414.268 591.635h195.467c5.425 0 9.824 4.398 9.824 9.824 0 5.427-4.398 9.826-9.824 9.826h-195.467c-5.427 0-9.826-4.398-9.826-9.826 0.001-5.425 4.399-9.824 9.826-9.824z"  /></svg>